<?xml version="1.0" encoding="UTF-8"?>
<!DOCTYPE svg PUBLIC "-//W3C//DTD SVG 1.1//EN" "http://www.w3.org/Graphics/SVG/1.1/DTD/svg11.dtd">
<svg xmlns="http://www.w3.org/2000/svg" version="1.1" width="500px" height="500px" style="shape-rendering:geometricPrecision; text-rendering:geometricPrecision; image-rendering:optimizeQuality; fill-rule:evenodd; clip-rule:evenodd" xmlns:xlink="http://www.w3.org/1999/xlink">
<g><path style="opacity:1" fill="#2fb1b6" d="M 140.5,-0.5 C 245.5,-0.5 350.5,-0.5 455.5,-0.5C 478.925,4.25692 493.592,18.2569 499.5,41.5C 499.5,146.167 499.5,250.833 499.5,355.5C 494.679,379.82 480.013,394.32 455.5,399C 350.5,399.667 245.5,399.667 140.5,399C 117.64,393.142 104.14,378.642 100,355.5C 99.3333,250.833 99.3333,146.167 100,41.5C 105.235,19.4335 118.735,5.43346 140.5,-0.5 Z"/></g>
<g><path style="opacity:1" fill="#fdfefe" d="M 455.5,-0.5 C 470.167,-0.5 484.833,-0.5 499.5,-0.5C 499.5,13.5 499.5,27.5 499.5,41.5C 493.592,18.2569 478.925,4.25692 455.5,-0.5 Z"/></g>
<g><path style="opacity:1" fill="#dbe6f4" d="M 188.5,47.5 C 266.558,47.0088 344.558,47.5088 422.5,49C 426.788,51.2917 429.622,54.7917 431,59.5C 431.667,100.833 431.667,142.167 431,183.5C 429.573,189.925 425.74,194.092 419.5,196C 341.752,196.994 264.085,196.661 186.5,195C 181.851,192.545 179.017,188.712 178,183.5C 177.333,142.167 177.333,100.833 178,59.5C 179.936,54.0678 183.436,50.0678 188.5,47.5 Z"/></g>
<g><path style="opacity:1" fill="#6a9ee2" d="M 221.5,64.5 C 219.833,64.5 218.167,64.5 216.5,64.5C 216.5,93.5 216.5,122.5 216.5,151.5C 215.502,122.338 215.169,93.0047 215.5,63.5C 217.735,63.2053 219.735,63.5386 221.5,64.5 Z"/></g>
<g><path style="opacity:1" fill="#1c6ad6" d="M 221.5,64.5 C 232.783,76.7872 244.117,89.1206 255.5,101.5C 266.855,89.1465 278.189,76.8132 289.5,64.5C 291.167,64.5 292.833,64.5 294.5,64.5C 294.5,93.5 294.5,122.5 294.5,151.5C 288.833,151.5 283.167,151.5 277.5,151.5C 277.667,135.83 277.5,120.163 277,104.5C 269.986,111.681 262.819,118.681 255.5,125.5C 247.817,118.65 240.65,111.317 234,103.5C 233.5,119.497 233.333,135.497 233.5,151.5C 227.833,151.5 222.167,151.5 216.5,151.5C 216.5,122.5 216.5,93.5 216.5,64.5C 218.167,64.5 219.833,64.5 221.5,64.5 Z"/></g>
<g><path style="opacity:1" fill="#679be2" d="M 289.5,64.5 C 291.265,63.5386 293.265,63.2053 295.5,63.5C 295.831,93.0047 295.498,122.338 294.5,151.5C 294.5,122.5 294.5,93.5 294.5,64.5C 292.833,64.5 291.167,64.5 289.5,64.5 Z"/></g>
<g><path style="opacity:1" fill="#1c6bd6" d="M 314.5,65.5 C 320.167,65.5 325.833,65.5 331.5,65.5C 331.5,94.1667 331.5,122.833 331.5,151.5C 325.833,151.5 320.167,151.5 314.5,151.5C 314.5,122.833 314.5,94.1667 314.5,65.5 Z"/></g>
<g><path style="opacity:1" fill="#1a6ad6" d="M 391.5,116.5 C 383.833,116.5 376.167,116.5 368.5,116.5C 368.5,122.5 368.5,128.5 368.5,134.5C 377.5,134.5 386.5,134.5 395.5,134.5C 395.5,140.167 395.5,145.833 395.5,151.5C 380.833,151.5 366.167,151.5 351.5,151.5C 351.5,122.833 351.5,94.1667 351.5,65.5C 365.833,65.5 380.167,65.5 394.5,65.5C 394.5,71.1667 394.5,76.8333 394.5,82.5C 385.833,82.5 377.167,82.5 368.5,82.5C 368.5,88.1667 368.5,93.8333 368.5,99.5C 376.167,99.5 383.833,99.5 391.5,99.5C 391.5,105.167 391.5,110.833 391.5,116.5 Z"/></g>
<g><path style="opacity:1" fill="#2eb1b6" d="M -0.5,99.5 C 16.1667,99.5 32.8333,99.5 49.5,99.5C 49.5,216.167 49.5,332.833 49.5,449.5C 166.167,449.5 282.833,449.5 399.5,449.5C 399.5,466.167 399.5,482.833 399.5,499.5C 279.833,499.5 160.167,499.5 40.5,499.5C 17.8139,493.15 4.14722,478.483 -0.5,455.5C -0.5,336.833 -0.5,218.167 -0.5,99.5 Z"/></g>
<g><path style="opacity:1" fill="#99baea" d="M 391.5,116.5 C 384.352,117.492 377.019,117.825 369.5,117.5C 369.5,122.833 369.5,128.167 369.5,133.5C 378.5,133.5 387.5,133.5 396.5,133.5C 396.823,139.69 396.49,145.69 395.5,151.5C 395.5,145.833 395.5,140.167 395.5,134.5C 386.5,134.5 377.5,134.5 368.5,134.5C 368.5,128.5 368.5,122.5 368.5,116.5C 376.167,116.5 383.833,116.5 391.5,116.5 Z"/></g>
<g><path style="opacity:1" fill="#fefefe" d="M 348.5,225.5 C 350.371,225.859 351.871,226.859 353,228.5C 385.047,268.758 417.213,308.925 449.5,349C 349.5,349.667 249.5,349.667 149.5,349C 174.167,316.333 198.833,283.667 223.5,251C 224.996,250.493 226.163,250.993 227,252.5C 242.935,274.051 259.102,295.385 275.5,316.5C 300.206,286.461 324.54,256.128 348.5,225.5 Z"/></g>
<g><path style="opacity:1" fill="#fdfefe" d="M -0.5,455.5 C 4.14722,478.483 17.8139,493.15 40.5,499.5C 26.8333,499.5 13.1667,499.5 -0.5,499.5C -0.5,484.833 -0.5,470.167 -0.5,455.5 Z"/></g>
</svg>
